<svg width="34" height="44" viewBox="0 0 34 44" fill="none" xmlns="http://www.w3.org/2000/svg">
<path d="M33.5 44H0V0H33.5V44Z"/>
<g clip-path="url(#clip0_1_629)">
<g clip-path="url(#clip1_1_629)">
<path d="M16.75 21.5C18.0761 21.5 19.3479 20.9732 20.2855 20.0355C21.2232 19.0979 21.75 17.8261 21.75 16.5C21.75 15.1739 21.2232 13.9021 20.2855 12.9645C19.3479 12.0268 18.0761 11.5 16.75 11.5C15.4239 11.5 14.1521 12.0268 13.2145 12.9645C12.2768 13.9021 11.75 15.1739 11.75 16.5C11.75 17.8261 12.2768 19.0979 13.2145 20.0355C14.1521 20.9732 15.4239 21.5 16.75 21.5ZM14.9648 23.375C11.1172 23.375 8 26.4922 8 30.3398C8 30.9805 8.51953 31.5 9.16016 31.5H24.3398C24.9805 31.5 25.5 30.9805 25.5 30.3398C25.5 26.4922 22.3828 23.375 18.5352 23.375H14.9648Z" fill="#374151"/>
</g>
</g>
<defs>
<clipPath id="clip0_1_629">
<rect width="17.5" height="20" fill="white" transform="translate(8 11.5)"/>
</clipPath>
<clipPath id="clip1_1_629">
<path d="M8 11.5H25.5V31.5H8V11.5Z" fill="white"/>
</clipPath>
</defs>
</svg>
