<svg width="47" height="52" viewBox="0 0 47 52" fill="none" xmlns="http://www.w3.org/2000/svg">
<path d="M38.5 52H0V8H38.5V52Z"/>
<g clip-path="url(#clip0_1_623)">
<g clip-path="url(#clip1_1_623)">
<path d="M8 20.4375C8 19.918 8.41797 19.5 8.9375 19.5H10.7148C11.5742 19.5 12.3359 20 12.6914 20.75H28.7461C29.7734 20.75 30.5234 21.7266 30.2539 22.7188L28.6523 28.668C28.3203 29.8945 27.207 30.75 25.9375 30.75H14.668L14.8789 31.8633C14.9648 32.3047 15.3516 32.625 15.8008 32.625H27.0625C27.582 32.625 28 33.043 28 33.5625C28 34.082 27.582 34.5 27.0625 34.5H15.8008C14.4492 34.5 13.2891 33.5391 13.0391 32.2148L11.0234 21.6289C10.9961 21.4805 10.8672 21.375 10.7148 21.375H8.9375C8.41797 21.375 8 20.957 8 20.4375ZM13 37.625C13 37.3788 13.0485 37.135 13.1427 36.9075C13.237 36.68 13.3751 36.4733 13.5492 36.2992C13.7233 36.1251 13.93 35.987 14.1575 35.8927C14.385 35.7985 14.6288 35.75 14.875 35.75C15.1212 35.75 15.365 35.7985 15.5925 35.8927C15.82 35.987 16.0267 36.1251 16.2008 36.2992C16.3749 36.4733 16.513 36.68 16.6073 36.9075C16.7015 37.135 16.75 37.3788 16.75 37.625C16.75 37.8712 16.7015 38.115 16.6073 38.3425C16.513 38.57 16.3749 38.7767 16.2008 38.9508C16.0267 39.1249 15.82 39.263 15.5925 39.3573C15.365 39.4515 15.1212 39.5 14.875 39.5C14.6288 39.5 14.385 39.4515 14.1575 39.3573C13.93 39.263 13.7233 39.1249 13.5492 38.9508C13.3751 38.7767 13.237 38.57 13.1427 38.3425C13.0485 38.115 13 37.8712 13 37.625ZM26.125 35.75C26.6223 35.75 27.0992 35.9475 27.4508 36.2992C27.8025 36.6508 28 37.1277 28 37.625C28 38.1223 27.8025 38.5992 27.4508 38.9508C27.0992 39.3025 26.6223 39.5 26.125 39.5C25.6277 39.5 25.1508 39.3025 24.7992 38.9508C24.4475 38.5992 24.25 38.1223 24.25 37.625C24.25 37.1277 24.4475 36.6508 24.7992 36.2992C25.1508 35.9475 25.6277 35.75 26.125 35.75Z" fill="#374151"/>
</g>
</g>
<path d="M36.5 0C42.0228 0 46.5 4.47715 46.5 10C46.5 15.5228 42.0228 20 36.5 20C30.9772 20 26.5 15.5228 26.5 10C26.5 4.47715 30.9772 0 36.5 0Z" fill="#EF4444"/>
<path d="M36.5 0C42.0228 0 46.5 4.47715 46.5 10C46.5 15.5228 42.0228 20 36.5 20C30.9772 20 26.5 15.5228 26.5 10C26.5 4.47715 30.9772 0 36.5 0Z" stroke="#E5E7EB"/>
<path d="M39.2663 14.1193C38.7038 14.1193 38.2024 14.0227 37.7621 13.8295C37.3246 13.6364 36.9766 13.3679 36.718 13.0241C36.4624 12.6776 36.3232 12.2756 36.3004 11.8182H37.3743C37.397 12.0994 37.4936 12.3423 37.6641 12.5469C37.8345 12.7486 38.0575 12.9048 38.3331 13.0156C38.6087 13.1264 38.9141 13.1818 39.2493 13.1818C39.6243 13.1818 39.9567 13.1165 40.2464 12.9858C40.5362 12.8551 40.7635 12.6733 40.9283 12.4403C41.093 12.2074 41.1754 11.9375 41.1754 11.6307C41.1754 11.3097 41.0959 11.027 40.9368 10.7827C40.7777 10.5355 40.5447 10.3423 40.2379 10.2031C39.9311 10.0639 39.5561 9.99432 39.1129 9.99432H38.4141V9.05682H39.1129C39.4595 9.05682 39.7635 8.99432 40.0249 8.86932C40.2891 8.74432 40.495 8.56818 40.6428 8.34091C40.7933 8.11364 40.8686 7.84659 40.8686 7.53977C40.8686 7.24432 40.8033 6.98722 40.6726 6.76847C40.5419 6.54972 40.3572 6.37926 40.1186 6.2571C39.8828 6.13494 39.6044 6.07386 39.2834 6.07386C38.9822 6.07386 38.6982 6.12926 38.4311 6.24006C38.1669 6.34801 37.951 6.50568 37.7834 6.71307C37.6158 6.91761 37.5249 7.16477 37.5107 7.45455H36.4879C36.505 6.99716 36.6428 6.59659 36.9013 6.25284C37.1598 5.90625 37.4979 5.63636 37.9155 5.44318C38.3359 5.25 38.7976 5.15341 39.3004 5.15341C39.8402 5.15341 40.3033 5.26278 40.6896 5.48153C41.076 5.69744 41.3729 5.98295 41.5803 6.33807C41.7876 6.69318 41.8913 7.0767 41.8913 7.48864C41.8913 7.98011 41.7621 8.39915 41.5036 8.74574C41.2479 9.09233 40.8999 9.33239 40.4595 9.46591V9.53409C41.0107 9.625 41.4411 9.85937 41.7507 10.2372C42.0604 10.6122 42.2152 11.0767 42.2152 11.6307C42.2152 12.1051 42.0859 12.5312 41.8274 12.9091C41.5717 13.2841 41.2223 13.5795 40.7791 13.7955C40.3359 14.0114 39.8317 14.1193 39.2663 14.1193Z" fill="white"/>
<defs>
<clipPath id="clip0_1_623">
<rect width="22.5" height="20" fill="white" transform="translate(8 19.5)"/>
</clipPath>
<clipPath id="clip1_1_623">
<path d="M8 19.5H30.5V39.5H8V19.5Z" fill="white"/>
</clipPath>
</defs>
</svg>
